<svg version="1.1" id="Capa_1" xmlns="http://www.w3.org/2000/svg" xmlns:xlink="http://www.w3.org/1999/xlink" x="0px" y="0px"
	 width="231px" height="52px" viewBox="0 0 231 52" enable-background="new 0 0 231 52" xml:space="preserve">
<g>
	<g>
		<path fill-rule="evenodd" clip-rule="evenodd" fill="#FAFAFA" d="M93.27,34.75c-3.48,0-6.11-2.85-6.11-6.36v-0.06
			c0-3.45,2.47-6.34,6.05-6.34c3.49,0,6.15,2.89,6.15,6.4v0.06C99.36,31.9,96.86,34.75,93.27,34.75z M93.21,36.63
			c4.99,0,8.81-3.62,8.81-8.24v-0.06c0-4.63-3.78-8.21-8.75-8.21c-4.99,0-8.77,3.65-8.77,8.27v0.06
			C84.5,33.08,88.25,36.63,93.21,36.63z"/>
		<path fill-rule="evenodd" clip-rule="evenodd" fill="#FAFAFA" d="M105.5,35.57c0,0.7,0.59,1.25,1.35,1.25
			c0.76,0,1.31-0.55,1.31-1.25v-8.39c0-3.11,2.05-5.19,4.8-5.19c2.82,0,4.43,1.92,4.43,5v8.58c0,0.7,0.59,1.25,1.35,1.25
			c0.72,0,1.31-0.55,1.31-1.25v-9.19c0-3.94-2.52-6.26-6.41-6.26c-2.75,0-4.42,1.2-5.48,2.87v-1.81c0-0.71-0.58-1.25-1.34-1.25
			c-0.73,0-1.32,0.58-1.32,1.25V35.57z"/>
		<path fill-rule="evenodd" clip-rule="evenodd" fill="#FAFAFA" d="M137.86,34.38c0.28-0.24,0.42-0.54,0.42-0.85
			c0-0.61-0.52-1.12-1.18-1.12c-0.31,0-0.55,0.14-0.75,0.31c-1.16,1.18-2.61,2.03-4.57,2.03c-2.82,0-5.24-2.14-5.58-5.94h11.63
			c0.66,0,1.24-0.49,1.24-1.18c0-3.95-2.96-7.51-7.66-7.51c-4.38,0-7.87,3.42-7.87,7.74v0.06c0,5.41,3.82,8.71,8.18,8.71
			C134.42,36.63,136.2,35.76,137.86,34.38z M126.2,26.94c0.3-2.84,2.39-4.95,5.15-4.95c3.16,0,4.82,2.31,5.06,4.95H126.2z"/>
		<path fill-rule="evenodd" clip-rule="evenodd" fill="#FAFAFA" d="M148.46,36.63c0.98,0,1.76-0.13,2.48-0.38
			c0.43-0.13,0.72-0.42,0.72-0.8c0-0.48-0.49-0.93-1.08-0.93c-0.19,0-0.65,0.23-1.53,0.23c-1.7,0-2.84-0.75-2.84-2.82v-9.94h4.37
			c0.62,0,1.15-0.41,1.15-0.93c0-0.5-0.53-0.94-1.15-0.94h-4.37v-3.64c0-0.69-0.62-1.29-1.35-1.29c-0.76,0-1.31,0.6-1.31,1.29v3.64
			h-1.37c-0.59,0-1.11,0.41-1.11,0.94c0,0.49,0.52,0.93,1.11,0.93h1.37v10.26C143.55,35.53,145.73,36.63,148.46,36.63z"/>
		<path fill-rule="evenodd" clip-rule="evenodd" fill="#FAFAFA" d="M155.64,35.57c0,0.7,0.59,1.25,1.35,1.25
			c0.76,0,1.31-0.55,1.31-1.25V21.18c0-0.71-0.59-1.25-1.35-1.25c-0.72,0-1.31,0.58-1.31,1.25V35.57z M155.64,16.61
			c0,0.72,0.58,1.24,1.32,1.24c0.76,0,1.34-0.52,1.34-1.24v-0.4c0-0.75-0.58-1.24-1.34-1.24c-0.74,0-1.32,0.49-1.32,1.24V16.61z"/>
		<path fill-rule="evenodd" clip-rule="evenodd" fill="#FAFAFA" d="M169.88,36.95c3.37,0,6.34-1.54,6.34-5.21v-0.07
			c0-3.42-3.01-4.3-5.4-5.16c-1.83-0.72-3.51-1.3-3.51-2.7v-0.08c0-1.08,0.8-1.87,2.18-1.87c1.09,0,2.39,0.51,3.79,1.3
			c0.28,0.14,0.49,0.21,0.83,0.21c0.97,0,1.73-0.75,1.73-1.7c0-0.59-0.41-1.04-1-1.29c-1.76-0.76-3.61-1.2-5.26-1.2
			c-3.24,0-6.11,1.7-6.11,5.02v0.07c0,3.64,3.01,4.41,5.43,5.21c1.83,0.68,3.48,1.18,3.48,2.66v0.07c0,1.26-0.88,2.05-2.41,2.05
			c-1.42,0-3.04-0.61-4.8-1.83c-0.25-0.15-0.56-0.25-0.9-0.25c-0.96,0-1.65,0.79-1.65,1.76c0,0.63,0.33,1.05,0.75,1.25
			C165.48,36.37,167.9,36.95,169.88,36.95z"/>
		<path fill-rule="evenodd" clip-rule="evenodd" fill="#FAFAFA" d="M187.6,33.22c-2.93,0-5.02-2.05-5.02-4.95v-0.06
			c0-2.9,1.93-5.3,4.96-5.3c2.97,0,5.06,2.43,5.06,5.36v0.06C192.6,31.2,190.67,33.22,187.6,33.22z M187.54,36.91
			c5.1,0,8.9-3.91,8.9-8.64v-0.06c0-4.76-3.77-8.99-8.84-8.99c-5.06,0-8.86,4.29-8.86,9.05v0.06
			C178.74,33.07,182.51,36.91,187.54,36.91z"/>
		<path fill-rule="evenodd" clip-rule="evenodd" fill="#FAFAFA" d="M200.66,34.84c0,1.09,0.85,1.98,1.9,1.98
			c1.08,0,1.94-0.89,1.94-1.98V23.86h3c0.91,0,1.66-0.81,1.66-1.85c0-1.03-0.72-1.84-1.66-1.84h-3.07v-0.88
			c0-1.67,0.78-2.43,2.28-2.43c0.26,0,0.59,0.03,0.82,0.06c0.91,0.03,1.66-0.78,1.66-1.78c0-0.97-0.65-1.69-1.37-1.79
			c-0.55-0.11-1.2-0.18-1.99-0.18c-1.68,0-2.92,0.5-3.81,1.5s-1.36,2.52-1.36,4.28v1.19h-0.69c-0.91,0-1.66,0.84-1.66,1.87
			c0,1.04,0.75,1.85,1.66,1.85h0.69V34.84z"/>
		<path fill-rule="evenodd" clip-rule="evenodd" fill="#FAFAFA" d="M218.68,36.91c1.05,0,1.86-0.17,2.71-0.48
			c0.56-0.24,1.04-0.85,1.04-1.6c0-0.96-0.78-1.71-1.66-1.71c-0.13,0-0.52,0.1-0.98,0.1c-1.34,0-2.12-0.62-2.12-2.17v-7.38h3.1
			c0.95,0,1.73-0.82,1.73-1.84c0-1.03-0.78-1.85-1.73-1.85h-3.1v-2.96c0-1.09-0.86-1.98-1.9-1.98c-1.08,0-1.94,0.89-1.94,1.98v2.96
			h-0.65c-0.95,0-1.7,0.82-1.7,1.85c0,1.02,0.75,1.84,1.7,1.84h0.65v8C213.83,35.58,215.83,36.91,218.68,36.91z"/>
		<path fill-rule="evenodd" clip-rule="evenodd" fill="#FAFAFA" d="M59.56,35.78c0,0.67,0.56,1.2,1.24,1.2
			c0.72,0,1.28-0.53,1.28-1.2V20.15l7.06,8.54c0.28,0.4,0.63,0.61,1.07,0.61c0.45,0,0.76-0.21,1.05-0.61l7.09-8.57v15.63
			c0,0.64,0.57,1.23,1.27,1.23c0.67,0,1.24-0.56,1.24-1.23V16.84c0-0.64-0.57-1.2-1.24-1.2h-0.28c-0.51,0-0.93,0.25-1.18,0.65
			l-7.92,10l-7.91-10c-0.25-0.37-0.65-0.65-1.2-0.65h-0.29c-0.69,0-1.28,0.56-1.28,1.2V35.78z"/>
	</g>
	<g>
		<g>
			<path fill="#AE5929" d="M34.82,19.56c0.49-0.48,1.05-0.71,1.68-0.71c0.65,0,1.2,0.23,1.65,0.71c0.47,0.44,0.7,0.95,0.7,1.57
				c0,0.63-0.23,1.18-0.7,1.63c-0.45,0.43-1,0.65-1.65,0.65c-0.63,0-1.19-0.22-1.68-0.65c-0.45-0.45-0.67-1-0.67-1.63
				C34.15,20.51,34.37,20,34.82,19.56z"/>
			<path fill="#38636E" d="M48.15,19.71c0.65,0,1.2,0.24,1.65,0.71c0.47,0.43,0.7,0.96,0.7,1.57c0,0.63-0.23,1.17-0.7,1.63
				c-0.45,0.43-1,0.65-1.65,0.65c-0.63,0-1.19-0.22-1.68-0.65c-0.44-0.46-0.67-1-0.67-1.63c0-0.61,0.23-1.14,0.67-1.57
				C46.96,19.95,47.52,19.71,48.15,19.71z"/>
			<path fill="#718C39" d="M38.24,7.21c0.47,0.44,0.7,0.96,0.7,1.57c0,0.63-0.23,1.17-0.7,1.63c-0.45,0.43-1,0.65-1.65,0.65
				c-0.63,0-1.19-0.22-1.68-0.65c-0.44-0.46-0.67-1-0.67-1.63c0-0.61,0.23-1.13,0.67-1.57c0.49-0.48,1.05-0.71,1.68-0.71
				C37.24,6.5,37.79,6.73,38.24,7.21z"/>
			<path fill="#718C39" d="M23.32,17.87c0.66,0,1.2,0.24,1.65,0.71c0.47,0.44,0.7,0.96,0.7,1.57c0,0.63-0.23,1.18-0.7,1.63
				c-0.45,0.43-0.99,0.65-1.65,0.65c-0.62,0-1.19-0.22-1.67-0.65c-0.45-0.45-0.67-1-0.67-1.63c0-0.61,0.22-1.13,0.67-1.57
				C22.13,18.11,22.7,17.87,23.32,17.87z"/>
			<path fill="#CD9E36" d="M48,33.72c0,0.62-0.24,1.17-0.7,1.62c-0.45,0.44-1,0.65-1.65,0.65c-0.63,0-1.19-0.21-1.68-0.65
				c-0.45-0.45-0.67-1-0.67-1.62c0-0.62,0.22-1.14,0.67-1.58c0.49-0.47,1.05-0.71,1.68-0.71c0.65,0,1.2,0.24,1.65,0.71
				C47.76,32.58,48,33.1,48,33.72z"/>
			<path fill="#38636E" d="M24.18,31.88c0-0.61,0.22-1.14,0.67-1.57c0.49-0.48,1.04-0.71,1.68-0.71c0.64,0,1.2,0.23,1.64,0.71
				c0.47,0.43,0.71,0.96,0.71,1.57c0,0.63-0.24,1.17-0.71,1.63c-0.44,0.43-1,0.65-1.64,0.65c-0.64,0-1.19-0.22-1.68-0.65
				C24.4,33.05,24.18,32.51,24.18,31.88z"/>
			<path fill="#AE5929" d="M16,35.34c-0.45,0.44-0.99,0.65-1.65,0.65c-0.62,0-1.18-0.21-1.67-0.65c-0.45-0.45-0.67-1-0.67-1.62
				c0-0.62,0.22-1.14,0.67-1.58c0.49-0.47,1.05-0.71,1.67-0.71c0.66,0,1.2,0.24,1.65,0.71c0.47,0.44,0.7,0.96,0.7,1.58
				C16.7,34.34,16.47,34.89,16,35.34z"/>
			<path fill="#CD9E36" d="M9.17,20.33c0.49-0.47,1.05-0.71,1.68-0.71c0.65,0,1.2,0.24,1.65,0.71c0.46,0.43,0.7,0.96,0.7,1.57
				c0,0.63-0.24,1.17-0.7,1.63c-0.45,0.43-1,0.65-1.65,0.65c-0.63,0-1.19-0.22-1.68-0.65c-0.45-0.46-0.67-1-0.67-1.63
				C8.5,21.29,8.72,20.76,9.17,20.33z"/>
			<path fill="#AE5929" d="M22.99,7.45c0.46,0.43,0.7,0.95,0.7,1.57c0,0.63-0.24,1.17-0.7,1.63c-0.45,0.43-1,0.65-1.65,0.65
				c-0.63,0-1.19-0.22-1.68-0.65c-0.44-0.46-0.67-1-0.67-1.63c0-0.62,0.23-1.14,0.67-1.57c0.49-0.48,1.05-0.72,1.68-0.72
				C21.99,6.73,22.54,6.97,22.99,7.45z"/>
			<path fill="#718C39" d="M29.36,40.94c0.65,0,1.2,0.24,1.65,0.71c0.47,0.44,0.7,0.96,0.7,1.57c0,0.63-0.23,1.17-0.7,1.63
				c-0.45,0.43-1,0.65-1.65,0.65c-0.63,0-1.19-0.22-1.68-0.65c-0.44-0.46-0.67-1-0.67-1.63c0-0.61,0.23-1.13,0.67-1.57
				C28.17,41.18,28.73,40.94,29.36,40.94z"/>
		</g>
		<path fill-rule="evenodd" clip-rule="evenodd" fill="#CCCCCC" d="M47.64,28.49c0.1,0.14,0.13,0.29,0.1,0.44L47.5,30.1
			c-0.04,0.16-0.13,0.28-0.28,0.37c-0.14,0.1-0.28,0.13-0.45,0.09c-0.16-0.03-0.29-0.12-0.39-0.26c-0.09-0.13-0.12-0.28-0.09-0.44
			l0.25-1.16c0.03-0.16,0.12-0.29,0.26-0.38c0.14-0.09,0.3-0.12,0.46-0.09C47.42,28.26,47.55,28.35,47.64,28.49z M47.16,25.63
			c0.03-0.15,0.13-0.28,0.27-0.37c0.14-0.09,0.29-0.12,0.45-0.09c0.17,0.04,0.29,0.12,0.39,0.26c0.1,0.14,0.13,0.29,0.09,0.44
			l-0.24,1.17c-0.04,0.16-0.13,0.28-0.27,0.37c-0.14,0.1-0.29,0.12-0.46,0.1c-0.16-0.04-0.29-0.13-0.38-0.27
			c-0.1-0.13-0.13-0.28-0.1-0.44L47.16,25.63z M42.91,20.86c0.11-0.11,0.25-0.17,0.42-0.18h1.22c0.17,0.01,0.31,0.07,0.43,0.18
			c0.12,0.12,0.18,0.25,0.18,0.42c0,0.16-0.06,0.3-0.18,0.41c-0.12,0.12-0.26,0.18-0.43,0.18h-1.22c-0.17,0-0.31-0.06-0.42-0.18
			c-0.13-0.11-0.19-0.25-0.19-0.41C42.72,21.11,42.78,20.98,42.91,20.86z M45.63,16.95c0.17,0.02,0.31,0.08,0.41,0.21l0.8,0.89
			c0.11,0.12,0.16,0.27,0.15,0.43c-0.01,0.16-0.08,0.29-0.21,0.4c-0.13,0.11-0.28,0.15-0.44,0.15c-0.17-0.02-0.31-0.09-0.41-0.21
			l-0.8-0.89c-0.11-0.12-0.16-0.27-0.15-0.43c0.01-0.16,0.09-0.29,0.21-0.4C45.32,16.99,45.47,16.94,45.63,16.95z M43.21,14.85
			c0.13-0.11,0.28-0.16,0.44-0.15c0.17,0.01,0.3,0.09,0.41,0.21l0.8,0.89c0.11,0.12,0.16,0.26,0.15,0.43
			c-0.01,0.16-0.09,0.29-0.21,0.4c-0.13,0.11-0.28,0.16-0.45,0.14c-0.16-0.01-0.3-0.08-0.41-0.2l-0.79-0.89
			c-0.11-0.13-0.16-0.27-0.16-0.43C43.01,15.09,43.08,14.96,43.21,14.85z M34.09,40.27c0.16,0.05,0.28,0.14,0.36,0.29
			c0.09,0.13,0.12,0.28,0.08,0.44c-0.04,0.16-0.14,0.27-0.29,0.35l-1.03,0.6c-0.15,0.08-0.3,0.11-0.46,0.07s-0.29-0.14-0.37-0.28
			c-0.09-0.14-0.11-0.29-0.08-0.45c0.05-0.15,0.15-0.27,0.3-0.35l1.03-0.59C33.78,40.26,33.93,40.24,34.09,40.27z M36.26,38.87
			c0.14-0.09,0.29-0.11,0.45-0.08c0.16,0.05,0.29,0.14,0.37,0.28c0.09,0.14,0.12,0.29,0.08,0.45c-0.05,0.15-0.15,0.27-0.3,0.35
			l-1.03,0.6c-0.14,0.08-0.3,0.11-0.46,0.07c-0.16-0.04-0.28-0.14-0.36-0.28c-0.09-0.14-0.12-0.29-0.08-0.45
			c0.05-0.15,0.14-0.27,0.29-0.35L36.26,38.87z M39.34,37.31c0.15,0.05,0.28,0.14,0.36,0.29c0.09,0.13,0.12,0.28,0.08,0.44
			c-0.05,0.16-0.15,0.27-0.29,0.35l-1.04,0.59c-0.14,0.09-0.3,0.12-0.46,0.08c-0.16-0.04-0.28-0.14-0.36-0.28
			c-0.09-0.14-0.12-0.29-0.08-0.45c0.05-0.15,0.15-0.27,0.29-0.35l1.04-0.59C39.02,37.3,39.18,37.28,39.34,37.31z M21.92,40.26
			c-0.14-0.09-0.23-0.22-0.26-0.39c-0.04-0.16-0.01-0.3,0.08-0.44c0.09-0.14,0.22-0.22,0.39-0.25c0.17-0.04,0.32-0.02,0.46,0.07
			l1.04,0.65c0.14,0.1,0.22,0.22,0.26,0.39c0.03,0.16,0.01,0.3-0.08,0.44s-0.23,0.22-0.39,0.25c-0.17,0.04-0.32,0.02-0.46-0.07
			L21.92,40.26z M20.98,38.3c0.14,0.08,0.24,0.21,0.28,0.36c0.04,0.16,0.02,0.3-0.07,0.45c-0.09,0.14-0.21,0.23-0.37,0.28
			c-0.16,0.03-0.31,0.01-0.46-0.08l-1.03-0.59c-0.15-0.08-0.25-0.2-0.29-0.36c-0.04-0.15-0.02-0.3,0.07-0.44
			c0.09-0.14,0.21-0.24,0.37-0.28s0.31-0.02,0.46,0.07L20.98,38.3z M26.19,41.5c0.14,0.1,0.23,0.23,0.26,0.39
			c0.04,0.16,0.01,0.31-0.08,0.44c-0.09,0.14-0.23,0.22-0.39,0.25c-0.17,0.04-0.32,0.01-0.46-0.07l-1.04-0.65
			c-0.14-0.1-0.22-0.22-0.26-0.39c-0.04-0.16-0.01-0.3,0.08-0.44c0.1-0.14,0.23-0.22,0.4-0.25c0.16-0.04,0.31-0.01,0.45,0.07
			L26.19,41.5z M27.49,38.69c-0.04-0.15-0.02-0.31,0.08-0.45c0.08-0.14,0.2-0.23,0.36-0.28c0.16-0.03,0.31-0.01,0.46,0.08
			c0.15,0.08,0.24,0.2,0.29,0.35l0.3,1.16c0.04,0.15,0.02,0.3-0.07,0.44c-0.09,0.15-0.21,0.24-0.37,0.28s-0.32,0.02-0.46-0.07
			c-0.15-0.08-0.24-0.2-0.29-0.36L27.49,38.69z M27.94,35.55l0.31,1.13c0.04,0.15,0.01,0.3-0.08,0.44c-0.08,0.14-0.2,0.24-0.36,0.28
			s-0.32,0.01-0.46-0.07c-0.15-0.08-0.24-0.2-0.29-0.36l-0.31-1.12c-0.03-0.16-0.01-0.31,0.08-0.45s0.2-0.24,0.37-0.28
			c0.16-0.04,0.31-0.01,0.45,0.08C27.8,35.28,27.9,35.39,27.94,35.55z M18.16,32.78l1.22-0.18c0.17-0.02,0.32,0.02,0.46,0.12
			c0.14,0.1,0.22,0.23,0.25,0.38c0.02,0.17-0.03,0.31-0.13,0.45c-0.1,0.13-0.23,0.21-0.4,0.23l-1.21,0.18
			c-0.17,0.02-0.33-0.01-0.46-0.11c-0.14-0.1-0.22-0.23-0.24-0.39c-0.03-0.16,0.01-0.31,0.11-0.44C17.87,32.88,18,32.81,18.16,32.78
			z M21.36,32.37l1.22-0.18c0.17-0.02,0.32,0.02,0.45,0.11c0.14,0.1,0.23,0.23,0.25,0.39s-0.02,0.31-0.12,0.44
			c-0.1,0.14-0.23,0.22-0.4,0.24l-1.22,0.18c-0.16,0.02-0.32-0.02-0.46-0.12c-0.13-0.1-0.21-0.23-0.24-0.38
			c-0.02-0.17,0.02-0.31,0.12-0.45C21.06,32.47,21.19,32.39,21.36,32.37z M22.19,28.59l1.04,0.65c0.14,0.09,0.23,0.22,0.26,0.39
			c0.04,0.16,0.02,0.3-0.07,0.44c-0.1,0.14-0.23,0.22-0.4,0.25c-0.16,0.04-0.32,0.02-0.46-0.07l-1.04-0.65
			c-0.14-0.09-0.22-0.22-0.26-0.39c-0.03-0.16-0.01-0.3,0.08-0.44c0.09-0.14,0.23-0.22,0.4-0.25C21.9,28.48,22.05,28.5,22.19,28.59z
			 M19.63,26.93l1.04,0.65c0.14,0.1,0.23,0.23,0.26,0.39c0.04,0.16,0.01,0.31-0.08,0.45c-0.09,0.13-0.23,0.21-0.4,0.25
			c-0.16,0.03-0.31,0.01-0.45-0.08l-1.04-0.65c-0.14-0.09-0.22-0.22-0.26-0.38s-0.01-0.31,0.08-0.45c0.1-0.13,0.23-0.22,0.39-0.25
			C19.34,26.82,19.49,26.85,19.63,26.93z M25.09,26.38c0.17-0.04,0.32-0.01,0.47,0.08c0.14,0.08,0.24,0.21,0.27,0.37l0.28,1.16
			c0.04,0.16,0.01,0.31-0.08,0.46c-0.09,0.13-0.21,0.23-0.37,0.26c-0.17,0.04-0.33,0.01-0.47-0.08c-0.15-0.08-0.24-0.21-0.28-0.37
			l-0.28-1.16c-0.03-0.16-0.01-0.31,0.09-0.45C24.8,26.51,24.93,26.42,25.09,26.38z M23.93,23.58c0.08-0.14,0.19-0.24,0.36-0.28
			c0.16-0.05,0.31-0.03,0.46,0.05c0.14,0.08,0.24,0.19,0.29,0.35l0.31,1.16c0.04,0.16,0.03,0.31-0.05,0.45
			c-0.08,0.14-0.2,0.24-0.37,0.28c-0.16,0.05-0.31,0.03-0.46-0.05c-0.15-0.08-0.24-0.19-0.29-0.35l-0.31-1.16
			C23.82,23.87,23.84,23.72,23.93,23.58z M41.58,35.92c0.14-0.08,0.29-0.09,0.46-0.04c0.16,0.04,0.28,0.13,0.36,0.28
			c0.08,0.14,0.09,0.29,0.05,0.44c-0.05,0.16-0.15,0.28-0.29,0.36l-1.1,0.59c-0.14,0.07-0.3,0.09-0.46,0.05
			c-0.16-0.05-0.28-0.14-0.36-0.29c-0.08-0.14-0.1-0.28-0.05-0.44c0.05-0.16,0.15-0.28,0.29-0.36L41.58,35.92z M36.29,33
			c0.01-0.16,0.09-0.29,0.23-0.39c0.12-0.11,0.27-0.16,0.44-0.14l1.22,0.12c0.16,0.02,0.3,0.09,0.41,0.22
			c0.11,0.13,0.15,0.27,0.14,0.43c-0.02,0.16-0.1,0.3-0.23,0.4c-0.13,0.11-0.28,0.15-0.44,0.13l-1.22-0.12
			c-0.17-0.01-0.31-0.09-0.42-0.22C36.32,33.31,36.27,33.16,36.29,33z M40.01,32.77l1.22,0.12c0.17,0.01,0.3,0.09,0.41,0.22
			c0.11,0.12,0.15,0.27,0.14,0.43c-0.02,0.16-0.1,0.29-0.23,0.4c-0.13,0.1-0.28,0.14-0.44,0.13l-1.22-0.12
			c-0.17-0.02-0.31-0.09-0.42-0.22c-0.1-0.13-0.15-0.27-0.13-0.43c0.02-0.16,0.09-0.3,0.23-0.4C39.69,32.79,39.84,32.75,40.01,32.77
			z M30.19,32.53c0.01-0.16,0.09-0.29,0.23-0.4c0.12-0.1,0.27-0.15,0.44-0.13l1.22,0.12c0.16,0.01,0.3,0.09,0.41,0.22
			c0.11,0.12,0.15,0.27,0.14,0.43c-0.03,0.16-0.1,0.29-0.23,0.4c-0.13,0.1-0.28,0.14-0.44,0.13l-1.23-0.12
			c-0.16-0.02-0.3-0.09-0.41-0.22C30.22,32.83,30.17,32.69,30.19,32.53z M33.91,32.23l1.21,0.12c0.17,0.02,0.31,0.1,0.42,0.23
			c0.11,0.12,0.15,0.26,0.14,0.42c-0.03,0.17-0.1,0.3-0.23,0.4c-0.13,0.11-0.28,0.15-0.44,0.14l-1.23-0.12
			c-0.16-0.02-0.3-0.09-0.41-0.22c-0.1-0.13-0.15-0.27-0.13-0.43c0.01-0.16,0.09-0.3,0.23-0.4C33.59,32.26,33.74,32.22,33.91,32.23z
			 M30.55,28.43c0.01,0.16-0.05,0.3-0.16,0.41l-0.83,0.89c-0.12,0.12-0.26,0.19-0.43,0.19c-0.16,0.01-0.31-0.04-0.42-0.16
			c-0.13-0.11-0.2-0.25-0.2-0.41c-0.01-0.16,0.05-0.3,0.17-0.42l0.82-0.89c0.11-0.12,0.26-0.18,0.43-0.19c0.16,0,0.3,0.05,0.42,0.16
			C30.48,28.13,30.54,28.26,30.55,28.43z M31.5,25.87c0.11-0.13,0.24-0.2,0.41-0.21c0.16-0.01,0.31,0.04,0.44,0.15
			c0.13,0.1,0.2,0.24,0.22,0.4c0,0.16-0.05,0.3-0.16,0.43l-0.79,0.89c-0.11,0.12-0.25,0.19-0.41,0.2c-0.17,0.01-0.32-0.04-0.45-0.15
			c-0.12-0.1-0.2-0.23-0.21-0.39c-0.01-0.17,0.04-0.31,0.15-0.43L31.5,25.87z M33.63,25.3c-0.11,0.13-0.24,0.2-0.41,0.21
			c-0.17,0.01-0.31-0.04-0.44-0.15c-0.13-0.1-0.2-0.24-0.21-0.4c-0.02-0.16,0.03-0.3,0.15-0.43l0.79-0.88
			c0.11-0.13,0.24-0.2,0.41-0.21c0.17-0.01,0.32,0.04,0.45,0.15c0.12,0.1,0.19,0.23,0.21,0.4c0.01,0.16-0.04,0.3-0.15,0.42
			L33.63,25.3z M41.84,29.15c0.02-0.16,0.1-0.29,0.24-0.38c0.14-0.1,0.29-0.14,0.46-0.12c0.16,0.03,0.29,0.11,0.4,0.24l0.73,0.94
			c0.1,0.14,0.14,0.29,0.12,0.45c-0.03,0.16-0.11,0.29-0.24,0.38c-0.14,0.1-0.29,0.15-0.46,0.12c-0.17-0.02-0.3-0.1-0.4-0.23
			l-0.73-0.95C41.86,29.46,41.82,29.32,41.84,29.15z M41.2,26.49l0.7,0.95c0.1,0.13,0.14,0.28,0.12,0.44
			c-0.03,0.16-0.11,0.29-0.24,0.38c-0.14,0.11-0.29,0.15-0.46,0.12c-0.17-0.02-0.3-0.1-0.4-0.23l-0.7-0.95
			c-0.1-0.13-0.14-0.28-0.12-0.44c0.02-0.17,0.11-0.29,0.24-0.39c0.14-0.1,0.29-0.14,0.46-0.12C40.96,26.28,41.1,26.36,41.2,26.49z
			 M40.16,25.07c0.1,0.13,0.15,0.28,0.12,0.44c-0.03,0.16-0.11,0.29-0.24,0.39c-0.14,0.1-0.29,0.14-0.46,0.12
			c-0.17-0.03-0.3-0.11-0.4-0.24l-0.73-0.95c-0.1-0.13-0.14-0.28-0.12-0.44c0.02-0.16,0.11-0.29,0.24-0.39
			c0.14-0.1,0.29-0.14,0.46-0.12c0.16,0.03,0.3,0.11,0.4,0.24L40.16,25.07z M16.48,36.82c-0.04-0.15-0.02-0.3,0.07-0.44
			c0.09-0.14,0.21-0.24,0.37-0.28s0.31-0.01,0.45,0.07l1.04,0.59c0.15,0.08,0.25,0.2,0.29,0.36c0.04,0.16,0.02,0.3-0.07,0.45
			c-0.09,0.14-0.21,0.23-0.37,0.28c-0.16,0.04-0.31,0.01-0.46-0.08l-1.04-0.59C16.62,37.1,16.52,36.98,16.48,36.82z M12.64,28.58
			c0.14,0.08,0.24,0.2,0.28,0.35l0.31,1.16c0.04,0.16,0.01,0.3-0.08,0.44c-0.08,0.15-0.2,0.24-0.37,0.29
			c-0.16,0.03-0.31,0.01-0.45-0.08c-0.15-0.08-0.25-0.2-0.29-0.35l-0.31-1.16c-0.04-0.16-0.01-0.3,0.08-0.44
			c0.08-0.15,0.21-0.24,0.37-0.29C12.34,28.47,12.49,28.49,12.64,28.58z M11.9,25.55c0.15,0.08,0.25,0.2,0.29,0.35l0.31,1.13
			c0.03,0.16,0.01,0.3-0.08,0.44c-0.08,0.15-0.2,0.24-0.37,0.28c-0.16,0.04-0.31,0.02-0.45-0.07c-0.15-0.08-0.25-0.2-0.29-0.35
			L11,26.2c-0.04-0.16-0.01-0.3,0.08-0.44c0.08-0.15,0.2-0.24,0.36-0.28C11.61,25.44,11.76,25.46,11.9,25.55z M16.69,25.2
			c0.16-0.03,0.32,0,0.46,0.09l0.97,0.65c0.14,0.1,0.22,0.22,0.25,0.39c0.03,0.16,0,0.3-0.1,0.44c-0.09,0.13-0.22,0.21-0.39,0.24
			c-0.17,0.03-0.32,0-0.46-0.09l-0.97-0.65c-0.14-0.1-0.22-0.23-0.25-0.39c-0.03-0.16,0-0.31,0.09-0.44
			C16.39,25.3,16.52,25.23,16.69,25.2z M15.64,24.3c0.14,0.09,0.22,0.22,0.24,0.38c0.02,0.17-0.02,0.31-0.12,0.45
			c-0.1,0.13-0.24,0.21-0.4,0.23c-0.17,0.02-0.32-0.01-0.46-0.12l-0.97-0.67c-0.14-0.11-0.22-0.23-0.25-0.39
			c-0.02-0.16,0.02-0.31,0.13-0.45c0.09-0.13,0.23-0.21,0.39-0.23c0.17-0.02,0.32,0.02,0.46,0.12L15.64,24.3z M14.3,21.28
			c-0.03-0.16,0-0.31,0.1-0.45c0.09-0.13,0.21-0.22,0.38-0.25L16,20.34c0.16-0.03,0.31,0,0.45,0.09c0.14,0.09,0.23,0.22,0.26,0.37
			c0.04,0.16,0.01,0.31-0.09,0.45c-0.09,0.13-0.22,0.22-0.38,0.25l-1.22,0.24c-0.17,0.03-0.31,0-0.46-0.09
			C14.42,21.56,14.34,21.43,14.3,21.28z M12.45,17.34c0.09-0.14,0.22-0.22,0.38-0.26c0.17-0.02,0.32,0,0.46,0.1
			c0.14,0.08,0.22,0.21,0.26,0.37c0.03,0.16,0,0.3-0.1,0.44l-0.6,0.89c-0.09,0.13-0.22,0.22-0.38,0.25c-0.17,0.03-0.32,0-0.46-0.09
			c-0.14-0.09-0.23-0.21-0.26-0.37s-0.01-0.31,0.09-0.44L12.45,17.34z M14.6,14.76c0.17-0.02,0.32,0.02,0.46,0.12
			c0.13,0.1,0.21,0.23,0.24,0.38c0.02,0.17-0.02,0.31-0.12,0.45l-0.64,0.89c-0.1,0.13-0.23,0.21-0.4,0.23
			c-0.16,0.03-0.32-0.01-0.46-0.11c-0.13-0.1-0.21-0.23-0.24-0.39c-0.02-0.16,0.02-0.31,0.12-0.44L14.2,15
			C14.3,14.87,14.43,14.79,14.6,14.76z M16.22,12.41c0.16-0.03,0.31-0.01,0.45,0.09c0.14,0.09,0.23,0.21,0.26,0.37
			c0.04,0.15,0,0.31-0.09,0.44l-0.61,0.89c-0.09,0.13-0.22,0.22-0.38,0.25c-0.16,0.03-0.32,0-0.46-0.09
			c-0.14-0.09-0.23-0.21-0.26-0.37c-0.03-0.16,0-0.31,0.09-0.44l0.61-0.89C15.93,12.53,16.06,12.44,16.22,12.41z M40.28,21.87
			c-0.17,0-0.31-0.06-0.42-0.18c-0.13-0.11-0.19-0.25-0.19-0.41c0-0.17,0.06-0.3,0.19-0.42c0.11-0.11,0.25-0.17,0.42-0.18h1.22
			c0.17,0.01,0.31,0.07,0.43,0.18c0.12,0.12,0.18,0.25,0.18,0.42c0,0.16-0.06,0.3-0.18,0.41c-0.12,0.12-0.26,0.18-0.43,0.18H40.28z
			 M32.08,20.37c0.17,0.01,0.3,0.09,0.41,0.22c0.11,0.12,0.15,0.27,0.13,0.43c-0.02,0.17-0.1,0.3-0.23,0.41
			c-0.13,0.1-0.28,0.13-0.45,0.12l-1.21-0.14c-0.17-0.01-0.31-0.08-0.42-0.22c-0.1-0.12-0.14-0.27-0.12-0.43
			c0.02-0.16,0.09-0.3,0.22-0.4c0.14-0.11,0.29-0.14,0.46-0.13L32.08,20.37z M36.01,17.25v-1.19c0-0.16,0.06-0.3,0.18-0.41
			c0.12-0.12,0.26-0.18,0.43-0.18s0.31,0.06,0.43,0.18c0.12,0.11,0.18,0.25,0.18,0.41v1.19c0,0.16-0.06,0.3-0.18,0.41
			c-0.12,0.12-0.26,0.18-0.43,0.18s-0.31-0.06-0.43-0.18C36.07,17.55,36.01,17.41,36.01,17.25z M33.36,17.78
			c0.13,0.11,0.2,0.24,0.21,0.4c0.01,0.17-0.04,0.31-0.15,0.43c-0.11,0.13-0.25,0.2-0.41,0.21c-0.17,0.01-0.32-0.04-0.44-0.15
			l-0.92-0.77c-0.13-0.11-0.2-0.24-0.21-0.4c-0.01-0.16,0.04-0.31,0.15-0.43c0.11-0.12,0.25-0.19,0.41-0.2
			c0.17-0.02,0.32,0.04,0.44,0.14L33.36,17.78z M41.64,12.45c0.16,0.02,0.3,0.08,0.41,0.21l0.79,0.89c0.12,0.12,0.17,0.26,0.15,0.43
			c-0.01,0.16-0.08,0.29-0.21,0.4c-0.12,0.11-0.27,0.16-0.44,0.15c-0.16-0.02-0.3-0.09-0.41-0.21l-0.79-0.89
			c-0.12-0.12-0.17-0.27-0.16-0.43c0.02-0.16,0.09-0.29,0.22-0.4C41.32,12.49,41.47,12.44,41.64,12.45z M37.23,12.82v1.19
			c0,0.16-0.06,0.29-0.18,0.41c-0.12,0.12-0.26,0.18-0.43,0.18s-0.31-0.06-0.43-0.18s-0.18-0.25-0.18-0.41v-1.19
			c0-0.16,0.06-0.3,0.18-0.42c0.12-0.11,0.26-0.17,0.43-0.17s0.31,0.06,0.43,0.17C37.17,12.52,37.23,12.66,37.23,12.82z M40.1,10.41
			l0.79,0.89c0.12,0.12,0.17,0.27,0.15,0.42c-0.01,0.17-0.08,0.3-0.21,0.41c-0.13,0.11-0.27,0.15-0.44,0.14
			c-0.17-0.01-0.31-0.08-0.41-0.2l-0.8-0.89c-0.11-0.13-0.16-0.27-0.15-0.43c0.01-0.16,0.09-0.3,0.21-0.4
			c0.13-0.11,0.28-0.16,0.45-0.15C39.85,10.22,39.99,10.28,40.1,10.41z M28.75,19.99c0.17,0.02,0.31,0.09,0.42,0.22
			c0.1,0.13,0.14,0.27,0.12,0.44c-0.02,0.16-0.09,0.29-0.22,0.4c-0.14,0.1-0.28,0.14-0.45,0.12l-1.22-0.13
			c-0.17-0.02-0.3-0.09-0.41-0.22c-0.1-0.13-0.15-0.28-0.13-0.44c0.02-0.16,0.1-0.3,0.23-0.4c0.13-0.1,0.28-0.14,0.45-0.12
			L28.75,19.99z M29.18,15.55c-0.01-0.16,0.04-0.31,0.15-0.43c0.11-0.13,0.24-0.2,0.41-0.21c0.17-0.01,0.32,0.04,0.45,0.15
			l0.91,0.77c0.13,0.1,0.2,0.23,0.21,0.4c0.01,0.16-0.04,0.31-0.15,0.43c-0.11,0.12-0.24,0.19-0.41,0.21
			c-0.17,0.01-0.31-0.05-0.44-0.15l-0.92-0.77C29.27,15.84,29.19,15.71,29.18,15.55z M18.24,21.22c-0.17,0.02-0.33-0.02-0.46-0.12
			c-0.14-0.1-0.22-0.22-0.25-0.38c-0.02-0.17,0.02-0.32,0.13-0.45c0.1-0.13,0.23-0.21,0.39-0.24l1.22-0.17
			c0.17-0.02,0.32,0.01,0.46,0.11c0.13,0.1,0.22,0.23,0.25,0.39c0.02,0.16-0.03,0.31-0.13,0.44c-0.1,0.13-0.23,0.21-0.4,0.24
			L18.24,21.22z M21.85,15.59c-0.03-0.16,0.02-0.31,0.12-0.44c0.1-0.13,0.23-0.2,0.4-0.23c0.16-0.02,0.31,0.02,0.45,0.12
			c0.13,0.1,0.21,0.22,0.23,0.38l0.17,1.2c0.02,0.16-0.02,0.31-0.12,0.44s-0.24,0.2-0.4,0.23c-0.17,0.02-0.32-0.02-0.45-0.12
			c-0.14-0.1-0.21-0.22-0.23-0.38L21.85,15.59z M21.43,12.71c-0.03-0.16,0.01-0.31,0.12-0.44c0.1-0.13,0.23-0.2,0.39-0.22
			c0.17-0.02,0.32,0.01,0.45,0.12c0.14,0.09,0.22,0.22,0.24,0.38l0.17,1.14c0.02,0.16-0.02,0.3-0.12,0.44
			c-0.1,0.12-0.24,0.2-0.4,0.22c-0.16,0.03-0.32-0.01-0.45-0.11c-0.13-0.1-0.21-0.23-0.23-0.39L21.43,12.71z M18.58,10.5
			c0.03,0.16,0,0.31-0.09,0.44l-0.61,0.89c-0.09,0.13-0.22,0.22-0.38,0.25c-0.17,0.03-0.32,0-0.46-0.09
			c-0.14-0.08-0.23-0.21-0.26-0.36c-0.03-0.17,0-0.32,0.09-0.45l0.61-0.89c0.09-0.13,0.22-0.22,0.38-0.25
			c0.17-0.03,0.32,0,0.46,0.09C18.46,10.22,18.55,10.34,18.58,10.5z M28.05,14.76l-0.91-0.77c-0.13-0.1-0.2-0.23-0.22-0.4
			c-0.01-0.16,0.04-0.3,0.15-0.43c0.11-0.12,0.25-0.19,0.42-0.21c0.16,0,0.31,0.04,0.44,0.15l0.91,0.77
			c0.13,0.11,0.21,0.24,0.22,0.4c0.01,0.16-0.04,0.31-0.15,0.43c-0.12,0.13-0.25,0.2-0.42,0.21C28.32,14.92,28.18,14.87,28.05,14.76
			z M25.23,11c0.17-0.01,0.32,0.04,0.44,0.15l0.92,0.77c0.13,0.1,0.19,0.24,0.21,0.4c0.01,0.16-0.04,0.3-0.15,0.43
			c-0.11,0.12-0.25,0.19-0.41,0.2c-0.17,0.02-0.32-0.03-0.45-0.14l-0.91-0.77c-0.13-0.11-0.2-0.24-0.22-0.4
			c-0.01-0.17,0.05-0.31,0.16-0.43C24.93,11.08,25.06,11.01,25.23,11z M28.63,7.65h1.22c0.17,0.01,0.31,0.06,0.43,0.18
			c0.12,0.12,0.18,0.25,0.18,0.42c0,0.16-0.06,0.3-0.18,0.41c-0.12,0.12-0.26,0.18-0.43,0.18h-1.22c-0.17,0-0.31-0.06-0.43-0.18
			c-0.12-0.11-0.18-0.25-0.18-0.41c0-0.17,0.06-0.3,0.18-0.42C28.32,7.71,28.46,7.66,28.63,7.65z M25.58,7.65h1.22
			c0.17,0.01,0.31,0.06,0.43,0.18s0.18,0.25,0.18,0.42c0,0.16-0.06,0.3-0.18,0.41c-0.12,0.12-0.26,0.18-0.43,0.18h-1.22
			c-0.17,0-0.31-0.06-0.43-0.18c-0.12-0.11-0.18-0.25-0.18-0.41c0-0.17,0.06-0.3,0.18-0.42S25.41,7.66,25.58,7.65z M31.68,7.65h1.22
			c0.17,0.01,0.31,0.06,0.43,0.18s0.18,0.25,0.18,0.42c0,0.16-0.06,0.3-0.18,0.41c-0.12,0.12-0.26,0.18-0.43,0.18h-1.22
			c-0.17,0-0.31-0.06-0.43-0.18c-0.12-0.11-0.18-0.25-0.18-0.41c0-0.17,0.06-0.3,0.18-0.42S31.51,7.66,31.68,7.65z"/>
	</g>
</g>
</svg>
